<?xml version="1.0" encoding="UTF-8" standalone="no"?>
<!DOCTYPE svg PUBLIC "-//W3C//DTD SVG 1.1//EN" "http://www.w3.org/Graphics/SVG/1.1/DTD/svg11.dtd">
<svg width="100%" height="100%" viewBox="0 0 2673 999" version="1.1" xmlns="http://www.w3.org/2000/svg" xmlns:xlink="http://www.w3.org/1999/xlink" xml:space="preserve" xmlns:serif="http://www.serif.com/" style="fill-rule:evenodd;clip-rule:evenodd;stroke-linejoin:round;stroke-miterlimit:2;"><defs><linearGradient id="heroGrad" x1="0" y1="0" x2="1" y2="0" spreadMethod="repeat"><stop offset="0" stop-color="#00e6cc"/><stop offset="0.16" stop-color="#22d3ee"/><stop offset="0.33" stop-color="#3b82f6"/><stop offset="0.5" stop-color="#a855f7"/><stop offset="0.66" stop-color="#ec4899"/><stop offset="0.83" stop-color="#f59e0b"/><stop offset="1" stop-color="#00e6cc"/><animateTransform attributeName="gradientTransform" type="translate" from="0 0" to="1 0" dur="7s" repeatCount="indefinite"/></linearGradient></defs>
    <g transform="matrix(1,0,0,1,-1342.098674,-12.936058)">
        <g transform="matrix(3.133329,0,0,1,-2291.194992,0)">
            <g transform="matrix(0.50868,0,0,1.593861,503.01165,-288.039168)">
                <path d="M1639.878,415.815L1770.305,415.815L1770.305,640.707C1770.305,653.31 1771.967,663.459 1778.52,669.198C1782.057,672.296 1786.999,673.446 1793.103,673.446C1799.906,673.446 1805.13,672.458 1808.696,669.308C1815.075,663.671 1815.902,653.704 1815.902,641.535L1815.902,415.815L1994.927,415.815L2046.701,594.146L2094.639,415.815L2109.551,415.815L2205.781,415.815C2229.622,411.063 2256.352,408.359 2285.171,408.359C2309.829,408.359 2332.397,410.833 2352.634,415.815L2385.839,415.815L2385.839,270.017L2545.075,270.017C2563.328,245.811 2592.467,230.254 2623.157,230.254C2673.996,230.254 2719.648,272.793 2719.648,326.745C2719.648,369.446 2692.305,402.91 2656.29,415.815L2729.589,415.815L2729.589,440.33C2753.159,420.622 2785.338,408.359 2826.115,408.359C2871.149,408.359 2906.445,423.117 2930.778,452.051C2953.943,479.596 2967.339,521.045 2967.339,577.749L2967.339,806.783L2804.18,806.783L2804.18,597.63C2804.18,578.195 2802.271,565.591 2794.596,559.089C2790.647,555.744 2785.259,554.95 2778.896,554.95C2771.402,554.95 2765.018,556.34 2760.238,560.316C2751.601,567.499 2748.642,580.875 2748.642,600.116L2748.642,806.783L2729.192,806.783L2593.058,806.782C2577.009,812.092 2559.14,815.067 2539.489,815.067C2515.191,815.067 2493.774,812.268 2475.271,806.737L2475.271,806.783L2328.208,806.783L2327.94,792.3C2306.141,807.163 2277.619,815.067 2242.095,815.067C2205.403,815.067 2171.063,804.728 2145.002,784.815L2137.611,806.783L1959.135,806.783L1942.383,759.634C1910.3,795.588 1860.172,806.281 1794.592,806.281C1769.61,806.281 1724.002,806.783 1724.002,806.783L1724,806.783C1724,806.783 1701.342,806.783 1676.71,806.783C1638.36,806.783 1602.597,787.438 1581.61,755.34C1542.372,695.329 1482.805,604.226 1482.805,604.226L1457.999,633.019L1457.999,806.783L1290.698,806.783L1290.698,188.834L1457.999,188.834L1457.999,399.259L1624.644,188.834L1823.018,188.834L1639.878,415.815ZM2623.157,382.679C2653.391,382.679 2680.749,359.446 2680.749,326.745C2680.749,294.543 2653.501,269.153 2623.157,269.153C2592.758,269.153 2564.738,294.484 2564.738,326.745C2564.738,359.509 2592.866,382.679 2623.157,382.679ZM2436.371,767.884L2436.371,744.025L2465.483,760.688C2484.358,771.492 2509.179,776.168 2539.489,776.168C2555.663,776.168 2570.284,773.643 2583.288,769.011L2586.453,767.884L2709.743,767.884L2709.743,600.116C2709.743,565.647 2719.892,543.277 2735.365,530.408C2746.651,521.021 2761.203,516.051 2778.896,516.051C2795.736,516.051 2809.289,520.555 2819.739,529.408C2833.674,541.213 2843.079,562.345 2843.079,597.63L2843.079,767.884L2928.439,767.884L2928.439,577.749C2928.439,532.556 2919.47,499.041 2901.007,477.088C2883.712,456.523 2858.124,447.259 2826.115,447.259C2775.291,447.259 2742.122,472.292 2728.198,507.103L2690.689,499.88L2690.689,454.714L2510.099,454.714L2510.099,308.916L2424.739,308.916L2424.739,454.714L2347.744,454.714L2345.347,454.094C2327.396,449.45 2307.251,447.259 2285.171,447.259C2258.408,447.259 2233.635,449.799 2211.643,454.316L2209.707,454.714L2124.463,454.714L2066.204,671.437L2028.743,671.81L1965.715,454.714L1854.801,454.714L1854.801,641.535C1854.801,667.174 1847.892,686.584 1834.452,698.459C1824.811,706.977 1811.495,712.346 1793.103,712.346C1776.007,712.346 1762.799,707.137 1752.893,698.462C1739.274,686.535 1731.405,666.898 1731.405,640.707L1731.405,454.714L1646.045,454.714L1646.045,563.129L1610.373,573.859L1543.707,473.06L1741.65,227.733L1643.458,227.733L1453.797,467.221L1419.1,455.146L1419.1,227.733L1329.597,227.733L1329.597,767.884L1419.1,767.884L1419.1,618.573L1487.074,539.674L1636.288,767.884L1729.239,767.884L1731.793,768.593C1750.229,773.714 1770.855,776.168 1793.103,776.168C1859.487,776.168 1909.34,754.064 1929.805,708.202L1949.617,663.804L1986.596,767.884L2109.657,767.884L2130.07,707.214L2152.242,737.33C2171.66,763.706 2205.613,776.168 2242.095,776.168C2284.65,776.168 2314.143,762.403 2329.244,733.575L2365.919,742.24L2366.394,767.884L2436.371,767.884ZM2204.718,514.696C2219.701,511.328 2235.63,509.424 2252.035,509.424C2291.161,509.424 2317.957,519.961 2333.607,538.228C2344.807,551.3 2351.011,568.691 2351.011,591.003L2351.011,643.758L2317.809,610.555C2302.508,595.255 2279.221,587.258 2243.751,587.258C2229.011,587.258 2214.457,589.383 2200.972,593.731L2164.273,605.563L2194.04,517.096L2204.718,514.696ZM2579.649,704.759L2567.855,709.809C2562.904,711.929 2557.298,713.174 2551.087,713.174C2537.33,713.174 2527.175,708.252 2520.095,699.756C2514.171,692.647 2510.099,682.111 2510.099,667.216L2510.099,525.163L2579.649,525.163L2579.649,704.759ZM2290.97,736.369L2288.485,736.369C2265.671,736.369 2246.991,728.686 2235.377,715.413C2226.98,705.817 2221.817,693.15 2221.817,677.157C2221.817,660.548 2226.94,647.601 2235.146,637.87C2246.816,624.034 2265.563,616.287 2288.485,616.287L2290.97,616.287C2323.423,616.287 2355.153,636.29 2355.153,677.157C2355.153,715.833 2324.812,736.369 2290.97,736.369Z" style="fill:url(#heroGrad);"/>
                <path d="M1726.588,787.333L1680.443,787.333C1646.328,787.333 1614.515,770.124 1595.846,741.571C1554.5,678.337 1484.94,571.95 1484.94,571.95L1438.549,625.796L1438.549,787.333L1310.148,787.333L1310.148,208.284L1438.549,208.284L1438.549,455.146L1634.051,208.284L1782.334,208.284L1567.779,474.199L1626.596,563.129L1626.596,435.265L1750.855,435.265L1750.855,640.707C1750.855,673.015 1764.109,692.896 1793.103,692.896C1824.582,692.896 1835.352,673.015 1835.352,641.535L1835.352,435.265L1980.321,435.265L2047.421,666.387L2109.551,435.265L2207.73,435.265C2230.893,430.507 2256.983,427.809 2285.171,427.809C2309.041,427.809 2330.812,430.244 2350.219,435.265L2405.289,435.265L2405.289,289.467L2529.548,289.467L2529.548,435.265L2710.139,435.265L2710.139,499.88C2726.707,458.46 2765.642,427.809 2826.115,427.809C2903.156,427.809 2947.889,475.856 2947.889,577.749L2947.889,787.333L2823.629,787.333L2823.629,597.63C2823.629,552.069 2807.89,535.501 2778.896,535.501C2747.417,535.501 2729.192,555.382 2729.192,600.116L2729.192,787.333L2589.814,787.333C2574.87,792.656 2558.076,795.617 2539.489,795.617C2505.176,795.617 2477.188,789.799 2455.821,777.568L2455.821,787.333L2347.301,787.333L2346.473,742.6C2328.248,777.393 2293.455,795.617 2242.095,795.617C2199.082,795.617 2159.473,779.959 2136.579,748.861L2123.634,787.333L1972.866,787.333L1947.567,716.128C1924.279,768.314 1869.683,788.048 1794.146,788.048C1772.24,788.048 1726.588,787.333 1726.588,787.333ZM2208.983,533.672L2195.004,575.219C2210.372,570.264 2226.952,567.808 2243.751,567.808C2286,567.808 2313.337,578.577 2331.562,596.802L2331.562,591.003C2331.562,548.755 2305.053,528.873 2252.035,528.873C2237.109,528.873 2222.616,530.608 2208.983,533.672ZM2560.199,544.613L2529.548,544.613L2529.548,667.216C2529.548,685.441 2537.004,693.724 2551.087,693.724C2554.46,693.724 2557.511,693.081 2560.199,691.93L2560.199,544.613ZM2290.97,716.92C2314.165,716.92 2335.704,703.665 2335.704,677.157C2335.704,648.991 2313.337,635.737 2290.97,635.737L2288.485,635.737C2261.148,635.737 2241.266,648.991 2241.266,677.157C2241.266,703.665 2261.148,716.92 2288.485,716.92L2290.97,716.92ZM2623.157,402.129C2582.566,402.129 2545.288,370.65 2545.288,326.745C2545.288,283.668 2582.566,249.704 2623.157,249.704C2663.749,249.704 2700.198,283.668 2700.198,326.745C2700.198,370.65 2663.749,402.129 2623.157,402.129Z" style="fill:rgb(25,31,39);"/>
            </g>
        </g>
    </g>
</svg>
