<?xml version="1.0" encoding="UTF-8" standalone="no"?>
<!DOCTYPE svg PUBLIC "-//W3C//DTD SVG 1.1//EN" "http://www.w3.org/Graphics/SVG/1.1/DTD/svg11.dtd">
<svg width="100%" height="100%" viewBox="0 0 1024 1024" version="1.1" xmlns="http://www.w3.org/2000/svg" xmlns:xlink="http://www.w3.org/1999/xlink" xml:space="preserve" xmlns:serif="http://www.serif.com/" style="fill-rule:evenodd;clip-rule:evenodd;stroke-linejoin:round;stroke-miterlimit:2;">
    <g transform="matrix(0.930924,0,0,0.930924,35.366915,35.366915)">
        <path d="M1024,389.12L1024,634.88C1024,849.641 849.641,1024 634.88,1024L389.12,1024C174.359,1024 0,849.641 0,634.88L0,389.12C0,174.359 174.359,0 389.12,0L634.88,0C849.641,0 1024,174.359 1024,389.12Z" style="fill:rgb(0,212,191);"/>
    </g>
    <path d="M1024,389.12L1024,634.88C1024,849.641 849.641,1024 634.88,1024L389.12,1024C174.359,1024 0,849.641 0,634.88L0,389.12C0,174.359 174.359,0 389.12,0L634.88,0C849.641,0 1024,174.359 1024,389.12ZM182.909,801.445C231.529,861.545 305.869,900 389.12,900L634.88,900C781.204,900 900,781.204 900,634.88L900,389.12C900,242.796 781.204,124 634.88,124L389.12,124C305.943,124 231.661,162.386 183.038,222.395L252.238,222.395L252.238,469.257L447.74,222.395L596.023,222.395L381.468,488.311L440.284,577.241L440.284,441.252L564.544,441.252L564.544,646.695C564.544,679.002 577.798,698.884 606.792,698.884C638.271,698.884 649.041,679.002 649.041,647.523L649.041,441.252L773.3,441.252L773.3,660.777C773.3,752.729 707.857,801.605 606.792,801.605C600.506,801.605 594.341,801.42 588.305,801.048L588.568,801.445L521.192,801.445C470.193,801.445 422.635,775.719 394.726,733.034C353.487,669.963 298.628,586.061 298.628,586.061L252.238,639.907L252.238,801.445L182.909,801.445Z" style="fill:rgb(25,32,39);"/>
</svg>
